<svg xmlns="http://www.w3.org/2000/svg" width="25.247" height="17.697" viewBox="0 0 25.247 17.697"><defs><style>.a{fill:#3e9de8;}</style></defs><g transform="translate(0 -74.608)"><g transform="translate(0 74.608)"><path class="a" d="M16.663,77.21A12.6,12.6,0,0,0,0,89.2a19.281,19.281,0,0,0,.5,4.544.543.543,0,0,0,.5.5h23.1a.839.839,0,0,0,.631-.5,29.433,29.433,0,0,0,.5-4.544A12.508,12.508,0,0,0,16.663,77.21ZM12.623,79.1a1.262,1.262,0,1,1,0,2.525,1.262,1.262,0,0,1,0-2.525ZM3.787,90.465a1.262,1.262,0,0,1,0-2.525,1.262,1.262,0,0,1,0,2.525ZM7.321,83.9a1.22,1.22,0,0,1-1.767,0,1.526,1.526,0,0,1-.126-1.893,1.22,1.22,0,0,1,1.767,0A1.526,1.526,0,0,1,7.321,83.9Zm5.3,7.826c-1.389,0-2.651-1.262-2.272-2.525s2.272-5.049,2.272-5.049S14.517,87.94,14.9,89.2,14.012,91.727,12.623,91.727Zm7.2-7.826a1.25,1.25,0,1,1,0-1.767A1.513,1.513,0,0,1,19.819,83.9Zm1.641,6.564A1.262,1.262,0,1,1,22.722,89.2,1.193,1.193,0,0,1,21.46,90.465Z" transform="translate(0 -76.555)"/></g></g></svg>