<svg xmlns="http://www.w3.org/2000/svg" width="23.977" height="20.177" viewBox="0 0 23.977 20.177"><defs><style>.a{fill:#a3a3a3;}</style></defs><g transform="translate(0 -6.348)"><path class="a" d="M14.469,9.811A4.357,4.357,0,0,1,16.5,13.048a3.515,3.515,0,1,0-2.028-3.237Zm-2.3,7.2a3.516,3.516,0,1,0-3.517-3.516A3.516,3.516,0,0,0,12.165,17.011Zm1.492.24H10.673a4.508,4.508,0,0,0-4.5,4.5V25.4l.009.057.251.079a20.494,20.494,0,0,0,6.122.987,12.568,12.568,0,0,0,5.345-1l.235-.119h.025v-3.65A4.506,4.506,0,0,0,13.657,17.251Zm5.818-3.63H16.514a4.334,4.334,0,0,1-1.338,3.019A5.35,5.35,0,0,1,19,21.759v1.124a12.116,12.116,0,0,0,4.719-.991l.235-.119h.025v-3.65A4.507,4.507,0,0,0,19.474,13.621Zm-13.48-.239a3.493,3.493,0,0,0,1.87-.543A4.352,4.352,0,0,1,9.5,10.063c0-.066.01-.131.01-.2a3.516,3.516,0,1,0-3.516,3.516Zm3.158,3.258a4.336,4.336,0,0,1-1.337-3c-.11-.008-.218-.017-.33-.017H4.5a4.507,4.507,0,0,0-4.5,4.5v3.65l.009.056.251.079a21.11,21.11,0,0,0,5.07.953v-1.1A5.351,5.351,0,0,1,9.153,16.639Z"/></g></svg>