<svg xmlns="http://www.w3.org/2000/svg" width="25.197" height="14.698" viewBox="0 0 25.197 14.698"><defs><style>.a{fill:#a3a3a3;}</style></defs><g transform="translate(0 -106.666)"><g transform="translate(0 106.666)"><path class="a" d="M6.089,107.821c-.84-.84-4.409-1.05-5.564-1.155a.386.386,0,0,0-.315.1.8.8,0,0,0-.21.42v9.449a.5.5,0,0,0,.525.525h3.15a.577.577,0,0,0,.525-.315c0-.315,1.89-5.879,2.1-8.609A.419.419,0,0,0,6.089,107.821Z" transform="translate(0 -106.666)"/></g><g transform="translate(8.91 108.871)"><path class="a" d="M189.474,152.936c-1.05-.315-1.995-.735-2.835-1.05-1.89-.84-2.73-.42-4.409,1.26a3.435,3.435,0,0,0-1.155,2.2c0,.1,0,.1.21.21.525.21,1.26.315,1.995-.84a.546.546,0,0,1,.42-.21,1.946,1.946,0,0,0,.735-.21,5.118,5.118,0,0,1,.735-.315h.21c.1,0,.315.1.42.1.525.525,1.47,1.26,2.415,2.1a24.047,24.047,0,0,1,3.675,3.36h.1C191.258,157.451,190,153.881,189.474,152.936Z" transform="translate(-181.061 -151.467)"/></g><g transform="translate(17.848 107.716)"><path class="a" d="M369.49,128a18.411,18.411,0,0,0-6.509,1.05l-.315.315a.631.631,0,0,0,.1.42,59.134,59.134,0,0,1,3.045,8.294.7.7,0,0,0,.525.42h3.15a.5.5,0,0,0,.525-.525v-9.449A.5.5,0,0,0,369.49,128Z" transform="translate(-362.666 -128)"/></g><g transform="translate(5.459 109.816)"><path class="a" d="M124.477,178.856c-.42-.945-2.2-2.31-3.78-3.57-.84-.735-1.68-1.365-2.31-1.89-.1.1-.315.1-.315.21a1.978,1.978,0,0,1-.84.21,2.593,2.593,0,0,1-3.045,1.05,1.241,1.241,0,0,1-.945-.945c-.21-1.05.735-2.52,1.47-3.255h-2.1a53.531,53.531,0,0,1-1.68,6.3,11.867,11.867,0,0,0,1.155,1.155c1.995,1.68,4.3,3.36,4.724,3.675a2.984,2.984,0,0,0,1.26.42h.315l-1.68-1.68a.52.52,0,1,1,.735-.735l2.1,2.1c.21.21.42.1.63.1.315-.1.42-.315.525-.63l-2.415-2.415a.52.52,0,0,1,.735-.735l2.625,2.625a1.123,1.123,0,0,0,.84,0c.1-.1.315-.21.42-.42l-2.94-2.94a.52.52,0,1,1,.735-.735l3.045,3.045a.694.694,0,0,0,.63-.1A.713.713,0,0,0,124.477,178.856Z" transform="translate(-110.934 -170.667)"/></g></g></svg>