<svg xmlns="http://www.w3.org/2000/svg" width="20.854" height="24.266" viewBox="0 0 20.854 24.266"><defs><style>.a{fill:#6c757d;}</style></defs><g transform="translate(-36.001)"><g transform="translate(36.001)"><path class="a" d="M55.527,6.621a.19.19,0,0,0-.189-.175H51.925V5.5a5.5,5.5,0,1,0-11,0v.948H37.517a.19.19,0,0,0-.189.175L36,24.062a.19.19,0,0,0,.189.2H56.665a.19.19,0,0,0,.189-.2ZM42.446,5.5a3.981,3.981,0,1,1,7.962,0v.948H42.446Zm-.758,6.256a1.9,1.9,0,0,1-1.9-1.9A1.79,1.79,0,0,1,40.93,8.121V9.858a.758.758,0,1,0,1.517,0V8.122a1.794,1.794,0,0,1,1.137,1.736A1.9,1.9,0,0,1,41.688,11.754Zm9.479,0a1.9,1.9,0,0,1-1.9-1.9,1.79,1.79,0,0,1,1.137-1.737V9.858a.758.758,0,1,0,1.517,0V8.122a1.794,1.794,0,0,1,1.137,1.736A1.9,1.9,0,0,1,51.167,11.754Z" transform="translate(-36.001)"/></g></g></svg>