<svg xmlns="http://www.w3.org/2000/svg" width="23" height="17.948" viewBox="0 0 23 17.948"><defs><style>.a{fill:#6c757d;}</style></defs><path class="a" d="M67.988,65.994A1.994,1.994,0,1,1,65.994,64,1.994,1.994,0,0,1,67.988,65.994Zm0,0" transform="translate(-61.009 -61.009)"/><path class="a" d="M20.125,0H2.875A2.939,2.939,0,0,0,0,2.991V14.957c0,.056.013.109.016.165a.764.764,0,0,0,.034.354,2.909,2.909,0,0,0,2.824,2.473h17.25A2.939,2.939,0,0,0,23,14.957V2.991A2.939,2.939,0,0,0,20.125,0ZM2.875,1.994h17.25a.98.98,0,0,1,.958,1v7.916L16.043,5.663a1.636,1.636,0,0,0-2.377,0L9.1,10.409,7.9,9.153a1.636,1.636,0,0,0-2.377,0L1.917,12.9V2.991A.98.98,0,0,1,2.875,1.994Zm0,0" transform="translate(0 0)"/></svg>