<svg xmlns="http://www.w3.org/2000/svg" width="23" height="18" viewBox="0 0 23 18"><defs><style>.a{fill:#6c757d;}</style></defs><g transform="translate(0 -48)"><g transform="translate(0 48)"><path class="a" d="M3.739,48H.748A.748.748,0,0,0,0,48.748v2.991a.748.748,0,0,0,1.5,0V49.5H3.739a.748.748,0,1,0,0-1.5Z" transform="translate(0 -48)"/></g><g transform="translate(18.513 61.513)"><path class="a" d="M387.739,336a.748.748,0,0,0-.748.748v2.244h-2.244a.748.748,0,0,0,0,1.5h2.991a.748.748,0,0,0,.748-.748v-2.991A.748.748,0,0,0,387.739,336Z" transform="translate(-384 -336)"/></g><g transform="translate(18.513 48)"><path class="a" d="M387.739,48h-2.991a.748.748,0,0,0,0,1.5h2.244v2.244a.748.748,0,1,0,1.5,0V48.748A.748.748,0,0,0,387.739,48Z" transform="translate(-384 -48)"/></g><g transform="translate(0 61.513)"><path class="a" d="M3.739,338.991H1.5v-2.244a.748.748,0,0,0-1.5,0v2.991a.748.748,0,0,0,.748.748H3.739a.748.748,0,0,0,0-1.5Z" transform="translate(0 -336)"/></g><g transform="translate(3 51.026)"><g transform="translate(0 0)"><rect class="a" width="2" height="12"/></g></g><g transform="translate(6.158 51.017)"><g transform="translate(0 0)"><rect class="a" width="1" height="9"/></g></g><g transform="translate(9.249 51.017)"><g transform="translate(0 0)"><rect class="a" width="2" height="9"/></g></g><g transform="translate(12.331 51.026)"><g transform="translate(0 0)"><rect class="a" width="2" height="12"/></g></g><g transform="translate(15.395 51.017)"><g transform="translate(0 0)"><rect class="a" width="1" height="9"/></g></g><g transform="translate(18.564 51.026)"><g transform="translate(0 0)"><rect class="a" width="2" height="12"/></g></g><g transform="translate(6.158 62.043)"><rect class="a" width="1" height="1"/></g><g transform="translate(9.249 62.043)"><rect class="a" width="2" height="1"/></g><g transform="translate(15.395 62.043)"><rect class="a" width="1" height="1"/></g></g></svg>